<svg viewBox="0 0 200 200" xmlns="http://www.w3.org/2000/svg">
  <path fill="#e01e37" d="M35,-52.1C44.7,-48,51.6,-36.8,55,-24.8C58.3,-12.9,58.2,-0.2,55.1,11.6C52.1,23.4,46.1,34.4,36.9,42.5C27.7,50.6,15.3,55.8,1.6,53.6C-12.1,51.4,-27.1,41.8,-38.3,29.9C-49.4,18,-56.7,3.9,-56,-9.6C-55.2,-23.1,-46.3,-36,-34.7,-43.3C-23.1,-50.7,-8.8,-52.4,3.3,-57C15.4,-61.6,30.8,-69.1,35,-52.1Z" transform="translate(100 100)" opacity="0.15" />
  <path d="M 45,52 C 72,42 128,42 155,52 C 155,92 144,138 100,165 C 56,138 45,92 45,52 Z" fill="#e01e37" />
  <path d="M 85,92 L 85,75 C 85,67 115,67 115,75 L 115,92" stroke="#ffffff" stroke-width="8" stroke-linecap="round" fill="none" />
  <rect x="75" y="90" width="50" height="40" rx="8" fill="#ffffff" />
  <circle cx="100" cy="106" r="6" fill="#e01e37" />
  <polygon points="97,106 103,106 104,118 96,118" fill="#e01e37" />
</svg>
